<?xml version="1.0" encoding="utf-8"?>
<!-- Generator: Adobe Illustrator 19.0.0, SVG Export Plug-In . SVG Version: 6.00 Build 0)  -->
<svg version="1.1" id="Layer_1" xmlns="http://www.w3.org/2000/svg" xmlns:xlink="http://www.w3.org/1999/xlink" x="0px" y="0px"
	 viewBox="0 0 141.7 42.5" style="enable-background:new 0 0 141.7 42.5;" xml:space="preserve">
<style type="text/css">
	.st0{fill:url(#SVGID_1_);}
	.st1{fill:url(#XMLID_55_);}
	.st2{fill:url(#XMLID_56_);}
	.st3{fill:url(#XMLID_57_);}
	.st4{fill:url(#SVGID_2_);}
	.st5{fill:url(#XMLID_58_);}
	.st6{fill:url(#XMLID_59_);}
	.st7{fill:#58595B;}
	.st8{fill:#84AD40;}
</style>
<g id="XMLID_1_">
	<g>
		<linearGradient id="SVGID_1_" gradientUnits="userSpaceOnUse" x1="30.579" y1="35.7565" x2="30.579" y2="5.7628">
			<stop  offset="0" style="stop-color:#424546"/>
			<stop  offset="0.2594" style="stop-color:#444748"/>
			<stop  offset="0.5015" style="stop-color:#494D4E"/>
			<stop  offset="0.7366" style="stop-color:#52575A"/>
			<stop  offset="0.9663" style="stop-color:#5F666A"/>
			<stop  offset="1" style="stop-color:#61696D"/>
		</linearGradient>
		<path class="st0" d="M17.2,7.4c2.2-2.2,5.8-2.2,8.1,0v0c2.9,2.9,7.5,2.9,10.5,0.1l0.1-0.1l0,0c2.2-2.2,5.8-2.2,8.1,0
			c2.2,2.2,2.2,5.8,0,8.1c-2.2,2.2-5.8,2.2-8.1,0c0,0,0,0,0,0c-2.9-2.9-7.5-2.9-10.4-0.1l-0.1,0.1l0,0c0,0,0,0,0,0
			c-2.2,2.2-5.8,2.2-8.1,0C15,13.3,15,9.7,17.2,7.4z M17.2,34.1c2.2,2.2,5.8,2.2,8.1,0c0,0,0,0,0,0l0,0l0.1-0.1
			c2.9-2.8,7.6-2.8,10.4,0.1c0,0,0,0,0,0c2.2,2.2,5.8,2.2,8.1,0c2.2-2.2,2.2-5.8,0-8.1c-2.2-2.2-5.8-2.2-8.1,0l0,0l-0.1,0.1
			c-2.9,2.8-7.6,2.8-10.5-0.1v0c-2.2-2.2-5.8-2.2-8.1,0C15,28.2,15,31.9,17.2,34.1z"/>
		<g>
			<linearGradient id="XMLID_55_" gradientUnits="userSpaceOnUse" x1="30.5798" y1="11.7378" x2="30.5798" y2="5.7628">
				<stop  offset="0" style="stop-color:#767B7E"/>
				<stop  offset="0.5317" style="stop-color:#787E82"/>
				<stop  offset="0.9939" style="stop-color:#80888D"/>
			</linearGradient>
			<path id="XMLID_38_" class="st1" d="M17.2,8c2.2-2.2,5.8-2.2,8.1,0v0c2.9,2.9,7.5,2.9,10.5,0.1L35.8,8l0,0c2.2-2.2,5.8-2.2,8.1,0
				c1,1,1.6,2.4,1.7,3.8c0.1-1.6-0.5-3.1-1.7-4.3c-2.2-2.2-5.8-2.2-8.1,0l0,0l-0.1,0.1c-2.9,2.8-7.6,2.8-10.5-0.1v0
				c-2.2-2.2-5.8-2.2-8.1,0c-1.2,1.2-1.7,2.8-1.7,4.3C15.7,10.4,16.2,9,17.2,8z"/>
			<linearGradient id="XMLID_56_" gradientUnits="userSpaceOnUse" x1="30.5798" y1="30.3297" x2="30.5798" y2="24.3559">
				<stop  offset="0" style="stop-color:#767B7E"/>
				<stop  offset="0.5317" style="stop-color:#787E82"/>
				<stop  offset="0.9939" style="stop-color:#80888D"/>
			</linearGradient>
			<path id="XMLID_37_" class="st2" d="M35.8,26L35.8,26L35.8,26c-3,2.9-7.7,2.9-10.5,0v0c-2.2-2.2-5.8-2.2-8.1,0
				c-1.2,1.2-1.7,2.8-1.7,4.3c0.1-1.4,0.6-2.7,1.7-3.8c2.2-2.2,5.8-2.2,8.1,0v0c2.9,2.9,7.5,2.9,10.5,0.1l0.1-0.1l0,0
				c2.2-2.2,5.8-2.2,8.1,0c1,1,1.6,2.4,1.7,3.8c0.1-1.5-0.5-3.1-1.7-4.3C41.7,23.8,38.1,23.8,35.8,26z"/>
		</g>
		<linearGradient id="XMLID_57_" gradientUnits="userSpaceOnUse" x1="49.1604" y1="26.463" x2="49.1604" y2="15.0603">
			<stop  offset="0" style="stop-color:#056AB2"/>
			<stop  offset="0.1819" style="stop-color:#066CB3"/>
			<stop  offset="0.3517" style="stop-color:#0A72B7"/>
			<stop  offset="0.5167" style="stop-color:#107CBF"/>
			<stop  offset="0.6787" style="stop-color:#168BCA"/>
			<stop  offset="0.8386" style="stop-color:#1EA0D9"/>
			<stop  offset="0.9949" style="stop-color:#2CBBED"/>
			<stop  offset="1" style="stop-color:#2CBCEE"/>
		</linearGradient>
		<path id="XMLID_36_" class="st3" d="M53.2,16.7c2.2,2.2,2.2,5.8,0,8.1c-2.2,2.2-5.8,2.2-8.1,0c-2.2-2.2-2.2-5.8,0-8.1
			C47.4,14.5,51,14.5,53.2,16.7z"/>
		<linearGradient id="SVGID_2_" gradientUnits="userSpaceOnUse" x1="21.2819" y1="26.4634" x2="21.2819" y2="15.0607">
			<stop  offset="0" style="stop-color:#83B140"/>
			<stop  offset="1" style="stop-color:#BDCC32"/>
		</linearGradient>
		<path class="st4" d="M34.6,16.7c-2.2-2.2-5.8-2.2-8.1,0h0l0,0l-0.1,0.1c-2.9,2.8-7.6,2.8-10.5-0.1c-2.2-2.2-5.8-2.2-8.1,0
			c-2.2,2.2-2.2,5.8,0,8.1c2.2,2.2,5.8,2.2,8.1,0l0.1-0.1c2.9-2.8,7.6-2.8,10.4,0.1c2.2,2.2,5.8,2.2,8.1,0
			C36.8,22.6,36.8,19,34.6,16.7z"/>
		<linearGradient id="XMLID_58_" gradientUnits="userSpaceOnUse" x1="49.163" y1="21.0342" x2="49.163" y2="15.0603">
			<stop  offset="0" style="stop-color:#1F9CD8"/>
			<stop  offset="1" style="stop-color:#98D3F3"/>
		</linearGradient>
		<path id="XMLID_34_" class="st5" d="M45.1,17.3c2.2-2.2,5.8-2.2,8.1,0c1,1,1.6,2.4,1.7,3.8c0.1-1.5-0.5-3.1-1.7-4.3
			c-2.2-2.2-5.8-2.2-8.1,0c-1.2,1.2-1.7,2.8-1.7,4.3C43.5,19.7,44.1,18.3,45.1,17.3z"/>
		<linearGradient id="XMLID_59_" gradientUnits="userSpaceOnUse" x1="21.2821" y1="21.0374" x2="21.2821" y2="15.0607">
			<stop  offset="0" style="stop-color:#BDCE31"/>
			<stop  offset="1" style="stop-color:#CED529"/>
		</linearGradient>
		<path id="XMLID_33_" class="st6" d="M26.5,16.7L26.5,16.7L26.5,16.7c-3,2.9-7.7,2.9-10.5,0c-2.2-2.2-5.8-2.2-8.1,0
			c-1.2,1.2-1.7,2.8-1.7,4.3c0.1-1.4,0.6-2.7,1.7-3.8c2.2-2.2,5.8-2.2,8.1,0c2.9,2.9,7.6,2.9,10.5,0.1l0.1-0.1l0,0
			c2.2-2.2,5.8-2.2,8.1,0c1,1,1.6,2.4,1.7,3.8c0.1-1.5-0.5-3.1-1.7-4.3C32.4,14.5,28.8,14.5,26.5,16.7z"/>
	</g>
	<g>
		<path class="st7" d="M66.4,8.4h6.8L73,10h-2.3v7.9h-1.9V10h-2.3V8.4z"/>
		<path class="st7" d="M77.7,16.1l0.7,1.1c-0.8,0.7-1.7,1-2.6,1c-2,0-3.3-1.4-3.3-3.6c0-1.3,0.3-2.1,0.9-2.8
			c0.6-0.6,1.3-0.9,2.2-0.9c0.8,0,1.6,0.3,2,0.7c0.6,0.7,0.9,1.6,0.9,3.1c0,0.2,0,0.2,0,0.4h-4v0.1c0,1.1,0.5,1.7,1.5,1.7
			C76.5,16.8,77.1,16.5,77.7,16.1z M74.5,13.7h2.1v-0.1c0-0.5-0.1-0.8-0.2-1c-0.2-0.3-0.4-0.4-0.8-0.4
			C74.9,12.1,74.5,12.7,74.5,13.7L74.5,13.7z"/>
		<path class="st7" d="M84.5,11.5l-0.9,1.2c-0.4-0.3-0.8-0.5-1.1-0.5c-0.8,0-1.2,0.7-1.2,2.3c0,0.9,0.1,1.5,0.4,1.8
			c0.2,0.2,0.5,0.4,0.8,0.4c0.4,0,0.8-0.2,1.3-0.6l0.1-0.1l0.8,1.1c-0.3,0.3-0.4,0.4-0.6,0.5c-0.5,0.3-1,0.4-1.7,0.4
			c-1.9,0-3-1.3-3-3.6c0-1.6,0.6-2.7,1.4-3.2c0.5-0.3,1.1-0.5,1.7-0.5c0.5,0,1,0.1,1.3,0.3C84.1,11.2,84.2,11.3,84.5,11.5z"/>
		<path class="st7" d="M85.3,8.2l1.9-0.4c0.1,0.4,0.1,1,0.1,1.7v1.4c0,0.2,0,0.5,0,0.6c0.5-0.5,1.3-0.7,2-0.7c0.9,0,1.6,0.4,1.8,1
			c0.1,0.4,0.2,0.5,0.2,1.3v4.9h-1.8v-4.7c0-0.7-0.2-1-0.7-1c-0.5,0-1,0.3-1.4,0.6v5h-1.9V9.8C85.5,9.2,85.4,8.5,85.3,8.2z"/>
		<path class="st7" d="M92.7,11.2l1.6-0.5c0.2,0.3,0.3,0.6,0.3,0.9c0.4-0.3,0.5-0.4,0.8-0.5c0.4-0.2,0.8-0.3,1.3-0.3
			c0.8,0,1.5,0.4,1.7,1c0.1,0.3,0.1,0.6,0.1,1v5.1h-1.8v-4.5c0-0.8-0.1-1-0.6-1c-0.4,0-0.8,0.2-1.3,0.6v4.9H93v-5.1
			C93,12.3,92.9,11.7,92.7,11.2z"/>
		<path class="st7" d="M102.8,10.8c1,0,1.8,0.3,2.4,1c0.6,0.7,0.8,1.4,0.8,2.5c0,1.2-0.3,2-0.9,2.7c-0.5,0.6-1.2,1-2.3,1
			c-1.9,0-3.1-1.4-3.1-3.6C99.6,12.3,100.9,10.8,102.8,10.8z M102.8,12.1c-0.4,0-0.8,0.3-0.9,0.7c-0.1,0.4-0.2,0.9-0.2,1.6
			c0,0.8,0.1,1.4,0.2,1.8c0.2,0.4,0.6,0.6,0.9,0.6c0.8,0,1.1-0.7,1.1-2.4c0-0.9-0.1-1.6-0.4-1.9C103.4,12.3,103.1,12.1,102.8,12.1z"
			/>
		<path class="st7" d="M108.9,7.8c0.1,0.4,0.1,0.8,0.1,1.8v5.4c0,1.2,0,1.4,0.1,1.6c0.1,0.1,0.2,0.2,0.4,0.2c0.1,0,0.1,0,0.2,0
			l0.3,1.1c-0.3,0.1-0.7,0.2-1.1,0.2c-0.8,0-1.4-0.4-1.6-1c-0.1-0.4-0.2-0.6-0.2-1.6v-5.2c0-0.9,0-1.5-0.1-2.1L108.9,7.8z"/>
		<path class="st7" d="M113.4,10.8c1,0,1.8,0.3,2.4,1c0.6,0.7,0.8,1.4,0.8,2.5c0,1.2-0.3,2-0.9,2.7c-0.5,0.6-1.2,1-2.3,1
			c-1.9,0-3.1-1.4-3.1-3.6C110.2,12.3,111.5,10.8,113.4,10.8z M113.4,12.1c-0.4,0-0.8,0.3-0.9,0.7c-0.1,0.4-0.2,0.9-0.2,1.6
			c0,0.8,0.1,1.4,0.2,1.8c0.2,0.4,0.6,0.6,0.9,0.6c0.8,0,1.1-0.7,1.1-2.4c0-0.9-0.1-1.6-0.4-1.9C114,12.3,113.7,12.1,113.4,12.1z"/>
		<path class="st7" d="M123.9,10.5l0.8,1.2c-0.4,0.4-0.8,0.5-1.3,0.5c-0.2,0-0.2,0-0.5,0c0.3,0.3,0.4,0.7,0.4,1.1
			c0,1.2-1.1,2.1-2.6,2.1c-0.1,0-0.1,0-0.3,0c-0.5,0.2-0.7,0.4-0.7,0.6c0,0.1,0.1,0.2,0.3,0.2l1,0c1.1,0,1.6,0.2,2.1,0.6
			c0.4,0.4,0.6,0.9,0.6,1.5c0,0.6-0.2,1-0.6,1.4c-0.6,0.7-1.7,0.9-2.8,0.9c-1,0-2-0.2-2.6-0.8c-0.4-0.4-0.6-0.8-0.6-1.2
			c0-0.4,0.1-0.6,0.2-0.7h1.7c-0.1,0.2-0.1,0.2-0.1,0.5c0,0.6,0.5,0.9,1.3,0.9c0.5,0,0.9-0.1,1.2-0.2c0.3-0.2,0.4-0.4,0.4-0.7
			c0-0.3-0.1-0.5-0.3-0.6c-0.2-0.1-0.4-0.2-0.9-0.2c-0.1,0-0.4,0-0.8,0c-0.8,0-1.3-0.1-1.7-0.2c-0.2-0.1-0.3-0.2-0.4-0.3
			c-0.1-0.2-0.1-0.4-0.1-0.6c0-0.3,0.1-0.5,0.2-0.6c0.2-0.2,0.7-0.4,1.1-0.5c-1-0.3-1.5-0.9-1.5-1.9c0-1.4,1.2-2.4,2.9-2.4
			c0.4,0,0.8,0,1.3,0.2c0.5,0.1,0.6,0.2,0.9,0.2C123,11.1,123.5,10.9,123.9,10.5z M120.3,12.1c-0.7,0-1.1,0.4-1.1,1
			c0,0.7,0.4,1,1.1,1c0.7,0,1.1-0.4,1.1-1C121.4,12.5,121,12.1,120.3,12.1z"/>
		<path class="st7" d="M124.6,11.1l1.9-0.2l1.2,4.1c0.1,0.4,0.4,1.4,0.4,1.4s0.1-0.8,0.2-1.1c0.1-0.4,0.1-0.5,0.3-1l1-3.3h1.9
			L129,18c-0.5,1.3-0.8,1.9-1.3,2.3c-0.5,0.3-1.1,0.6-1.7,0.6l-0.6-1.2c0.4-0.1,0.9-0.3,1.1-0.5c0.2-0.1,0.4-0.3,0.5-0.6
			c0.2-0.3,0.2-0.4,0.4-0.8h-0.5c-0.1-0.3-0.2-0.5-0.3-0.8c-0.1-0.4-0.4-1.1-0.4-1.1L124.6,11.1z"/>
	</g>
	<g>
		<path class="st7" d="M67.4,24.8h2.5c1.6,0,2.1,0.2,2.6,0.5c0.9,0.5,1.4,1.4,1.4,2.5c0,1.3-0.6,2.3-1.6,2.8
			c-0.4,0.2-0.8,0.3-1.9,0.3h-1v3.5h-1.9V24.8z M69.3,26.3v2.9h1c0.8,0,1-0.1,1.3-0.5c0.2-0.3,0.2-0.6,0.2-1c0-0.9-0.5-1.4-1.3-1.4
			H69.3z"/>
		<path class="st7" d="M74.2,28.1c0.4-0.3,0.6-0.4,1.1-0.6c0.7-0.3,1.3-0.4,1.9-0.4c1.2,0,2,0.4,2.2,1.2c0.1,0.3,0.1,0.5,0.1,1.3
			l0,2.3c0,0,0,0.1,0,0.1c0,0.8,0.1,1,0.7,1.4l-1,1.1c-0.4-0.2-0.8-0.5-1-0.8C78,34,78,34.1,77.9,34.2c-0.3,0.2-0.8,0.4-1.4,0.4
			c-1.6,0-2.4-0.8-2.4-2.2c0-1.6,1.1-2.4,3.3-2.4c0.1,0,0.2,0,0.4,0v-0.3c0-0.8-0.2-1-0.8-1c-0.6,0-1.3,0.3-2,0.8L74.2,28.1z
			 M77.8,31.2L77.8,31.2c-1.4,0-1.8,0.2-1.8,1.1c0,0.5,0.3,0.9,0.8,0.9c0.3,0,0.7-0.2,1-0.5L77.8,31.2z"/>
		<path class="st7" d="M81,27.6l1.6-0.4c0.2,0.3,0.3,0.6,0.3,1c0.3-0.4,0.7-0.7,1-0.9c0.1-0.1,0.4-0.1,0.6-0.1c0.3,0,0.4,0,0.7,0.2
			l-0.5,1.6c-0.2-0.1-0.3-0.1-0.5-0.1c-0.4,0-0.8,0.2-1.1,0.6v4.9h-1.8v-4.7C81.3,28.7,81.2,28,81,27.6z"/>
		<path class="st7" d="M85.5,24.6l1.8-0.5c0.1,0.5,0.1,1.3,0.1,2.3v7.9h-1.8v-7.9C85.6,25.8,85.6,25.3,85.5,24.6z M89.3,27.3h2.2
			l-2.2,2.9l2.7,4.1h-2.2l-2.3-4L89.3,27.3z"/>
	</g>
	<path class="st8" d="M97.7,24.9h5.8v1.4l-3.6,6c-0.2,0.3-0.5,0.7-0.5,0.7s0.6-0.1,1-0.1h3.2l-0.5,1.6h-6v-1.4l3.6-5.9
		c0.3-0.4,0.6-0.9,0.6-0.9s-0.4,0.1-1,0.1h-3L97.7,24.9z"/>
	<path class="st8" d="M104.3,28.2c0.5-0.3,0.7-0.4,1.2-0.6c0.7-0.3,1.3-0.4,1.9-0.4c1.2,0,2,0.4,2.3,1.2c0.1,0.3,0.1,0.5,0.1,1.3
		l0,2.4c0,0,0,0.1,0,0.1c0,0.8,0.1,1.1,0.7,1.5l-1,1.1c-0.4-0.2-0.8-0.5-1-0.9c-0.3,0.2-0.3,0.3-0.4,0.4c-0.3,0.2-0.8,0.4-1.4,0.4
		c-1.6,0-2.4-0.8-2.4-2.2c0-1.7,1.2-2.4,3.4-2.4c0.1,0,0.2,0,0.4,0v-0.3c0-0.8-0.2-1.1-0.8-1.1c-0.6,0-1.3,0.3-2.1,0.8L104.3,28.2z
		 M108,31.4L108,31.4c-1.4,0-1.8,0.2-1.8,1.1c0,0.6,0.3,0.9,0.8,0.9c0.3,0,0.7-0.2,1-0.5L108,31.4z"/>
	<path class="st8" d="M117.8,27l0.8,1.2c-0.4,0.4-0.8,0.5-1.3,0.5c-0.2,0-0.2,0-0.5,0c0.3,0.3,0.4,0.7,0.4,1.2
		c0,1.2-1.1,2.1-2.6,2.1c-0.1,0-0.1,0-0.3,0c-0.5,0.2-0.7,0.4-0.7,0.6c0,0.1,0.1,0.2,0.3,0.2l1,0c1.1,0,1.7,0.2,2.2,0.6
		c0.4,0.4,0.6,0.9,0.6,1.5c0,0.6-0.2,1.1-0.6,1.5c-0.6,0.7-1.7,0.9-2.8,0.9c-1,0-2.1-0.2-2.7-0.8c-0.4-0.4-0.6-0.8-0.6-1.3
		c0-0.4,0.1-0.6,0.2-0.7h1.7c-0.1,0.2-0.1,0.2-0.1,0.5c0,0.6,0.5,0.9,1.3,0.9c0.5,0,0.9-0.1,1.2-0.2c0.3-0.2,0.4-0.4,0.4-0.7
		c0-0.3-0.1-0.5-0.3-0.6c-0.2-0.1-0.5-0.2-1-0.2c-0.1,0-0.4,0-0.8,0c-0.8,0-1.4-0.1-1.7-0.2c-0.2-0.1-0.3-0.2-0.4-0.3
		c-0.1-0.2-0.1-0.4-0.1-0.6c0-0.3,0.1-0.5,0.2-0.6c0.2-0.2,0.7-0.4,1.1-0.5c-1-0.3-1.5-0.9-1.5-2c0-1.5,1.2-2.4,3-2.4
		c0.4,0,0.8,0,1.3,0.2c0.5,0.1,0.6,0.2,0.9,0.2C116.8,27.6,117.3,27.4,117.8,27z M114.1,28.6c-0.7,0-1.1,0.4-1.1,1.1
		c0,0.7,0.4,1,1.1,1c0.7,0,1.1-0.4,1.1-1C115.2,29,114.8,28.6,114.1,28.6z"/>
	<path class="st8" d="M118.8,27.7l1.7-0.4c0.2,0.3,0.3,0.6,0.3,1c0.3-0.4,0.7-0.7,1.1-0.9c0.2-0.1,0.4-0.1,0.6-0.1
		c0.3,0,0.4,0,0.7,0.2l-0.5,1.6c-0.2-0.1-0.3-0.1-0.5-0.1c-0.4,0-0.8,0.2-1.1,0.6v5h-1.9v-4.7C119.1,28.8,119,28.1,118.8,27.7z"/>
	<path class="st8" d="M128.5,32.6l0.7,1.1c-0.8,0.7-1.7,1-2.7,1c-2,0-3.4-1.4-3.4-3.7c0-1.3,0.3-2.1,0.9-2.8c0.6-0.7,1.3-1,2.2-1
		c0.8,0,1.6,0.3,2.1,0.7c0.7,0.7,0.9,1.6,0.9,3.1c0,0.2,0,0.2,0,0.4h-4.1v0.1c0,1.1,0.5,1.7,1.5,1.7
		C127.3,33.3,127.9,33.1,128.5,32.6z M125.2,30.2h2.2v-0.1c0-0.5-0.1-0.8-0.2-1.1c-0.2-0.3-0.4-0.4-0.8-0.4
		C125.6,28.6,125.2,29.2,125.2,30.2L125.2,30.2z"/>
	<path class="st8" d="M132.3,24.2c0.1,0.5,0.1,0.8,0.1,1.3v1.7c0,0.2,0,0.5,0,0.6c0.4-0.4,0.9-0.6,1.5-0.6c1.7,0,2.8,1.4,2.8,3.6
		c0,1.4-0.5,2.6-1.3,3.3c-0.5,0.4-1,0.6-1.6,0.6c-0.7,0-1.2-0.2-1.6-0.7c-0.1,0.2-0.1,0.3-0.2,0.5h-1.7c0.1-0.3,0.2-0.5,0.2-1.5
		v-6.6c0-0.9,0-1.3-0.1-1.7L132.3,24.2z M132.4,29.3v3.3c0.2,0.2,0.5,0.5,1,0.5c0.5,0,0.7-0.2,0.9-0.6c0.2-0.4,0.2-0.8,0.2-1.6
		c0-0.6,0-0.9-0.1-1.2c-0.1-0.6-0.5-0.9-1-0.9C133,28.8,132.7,29.1,132.4,29.3z"/>
</g>
</svg>
