<?xml version="1.0" encoding="utf-8"?>
<!-- Generator: Adobe Illustrator 19.0.0, SVG Export Plug-In . SVG Version: 6.00 Build 0)  -->
<svg version="1.1" id="Layer_1" xmlns="http://www.w3.org/2000/svg" xmlns:xlink="http://www.w3.org/1999/xlink" x="0px" y="0px"
	 viewBox="0 0 153.1 48.2" style="enable-background:new 0 0 153.1 48.2;" xml:space="preserve">
<style type="text/css">
	.st0{fill-rule:evenodd;clip-rule:evenodd;fill:url(#XMLID_88_);}
	.st1{fill-rule:evenodd;clip-rule:evenodd;fill:url(#XMLID_89_);}
	.st2{fill-rule:evenodd;clip-rule:evenodd;fill:url(#XMLID_90_);}
	.st3{fill:#939598;}
	.st4{fill:#58595B;}
	.st5{fill:url(#XMLID_91_);}
	.st6{fill:url(#XMLID_92_);}
	.st7{fill:url(#XMLID_93_);}
	.st8{fill:url(#XMLID_94_);}
	.st9{fill:url(#XMLID_95_);}
	.st10{fill:url(#XMLID_96_);}
	.st11{fill:url(#XMLID_97_);}
</style>
<g id="XMLID_1_">
	<g id="XMLID_2_">
		<g id="XMLID_3_">
			
				<linearGradient id="XMLID_88_" gradientUnits="userSpaceOnUse" x1="2984.0793" y1="-347.2863" x2="3005.3145" y2="-347.2863" gradientTransform="matrix(0.4991 -0.8665 0.8665 0.4991 -1173.1305 2781.7996)">
				<stop  offset="0" style="stop-color:#00618E"/>
				<stop  offset="1" style="stop-color:#67A763"/>
			</linearGradient>
			<polygon id="XMLID_60_" class="st0" points="8.7,18.9 24.6,28.1 24.6,25.1 11.3,17.4 29.9,6.7 27.2,5.1 6,17.4 			"/>
			<linearGradient id="XMLID_89_" gradientUnits="userSpaceOnUse" x1="24.6737" y1="21.8288" x2="0.785" y2="20.3747">
				<stop  offset="0" style="stop-color:#36AFC5"/>
				<stop  offset="1" style="stop-color:#CAC92D"/>
			</linearGradient>
			<polygon id="XMLID_59_" class="st1" points="6,17.4 6,20.5 27.3,32.7 27.2,11.3 24.6,12.8 24.6,28.1 			"/>
			
				<linearGradient id="XMLID_90_" gradientUnits="userSpaceOnUse" x1="2993.3701" y1="-351.4994" x2="2993.3701" y2="-331.0904" gradientTransform="matrix(0.4991 -0.8665 0.8665 0.4991 -1173.1305 2781.7996)">
				<stop  offset="0" style="stop-color:#042C4B"/>
				<stop  offset="1" style="stop-color:#24959B"/>
			</linearGradient>
			<polygon id="XMLID_58_" class="st2" points="14,18.9 11.3,17.4 29.9,6.7 29.9,31.2 27.3,32.7 27.2,11.3 			"/>
		</g>
		<g id="XMLID_4_">
			<path id="XMLID_5_" class="st3" d="M36.8,42.2h5.6V43h-6.6v-0.8l5.5-8.5H36v-0.8h6.4v0.8L36.8,42.2z"/>
			<path id="XMLID_7_" class="st3" d="M49.4,40.3h-4.7L43.8,43h-0.9l3.5-10.1h1.3L51.2,43h-0.9L49.4,40.3z M45,39.5h4.2l-2.1-6.2
				L45,39.5z"/>
			<path id="XMLID_10_" class="st3" d="M52.6,40.2c0,1.5,0.5,2.2,2.4,2.2c0.6,0,1.5-0.1,2.1-0.2v-3.6H58v4.2
				c-0.9,0.3-2.1,0.4-3.1,0.4c-2.5,0-3.2-1.1-3.2-2.9v-4.5c0-1.9,0.9-2.9,3.4-2.9c0.9,0,2,0.1,2.8,0.3l-0.1,0.8
				c-0.9-0.1-1.8-0.2-2.7-0.2c-1.9,0-2.5,0.6-2.5,2.2V40.2z"/>
			<path id="XMLID_12_" class="st3" d="M63.2,39.1H63h-2.7V43h-0.9V32.9H63c2,0,2.8,0.9,2.8,2.3v1.5c0,1.1-0.5,1.9-1.6,2.2l2.7,4h-1
				L63.2,39.1z M63,33.7h-2.7v4.6H63c1.3,0,1.9-0.4,1.9-1.5v-1.5C64.9,34.1,64.3,33.7,63,33.7z"/>
			<path id="XMLID_15_" class="st3" d="M67.7,32.9h5.7v0.8h-4.8v3.7h4.5v0.8h-4.5v3.9h4.8V43h-5.7V32.9z"/>
			<path id="XMLID_17_" class="st3" d="M74.7,43V32.9h3.8c1.4,0,2.2,0.7,2.2,2v1.2c0,0.8-0.3,1.3-1.2,1.6c0.8,0.1,1.5,0.8,1.5,1.9
				v1.3c0,1.4-1,2.1-2.3,2.1H74.7z M79.8,34.7c0-0.7-0.4-1.1-1.3-1.1h-2.9v3.7h2.6c1.1,0,1.6-0.6,1.6-1.4V34.7z M80.1,39.6
				c0-0.8-0.5-1.4-1.7-1.4h-2.8v4h3.1c1,0,1.4-0.5,1.4-1.3V39.6z"/>
		</g>
		<g id="XMLID_21_">
			<g id="XMLID_22_">
				<path id="XMLID_23_" class="st4" d="M39.1,30.8c-1.2,0-2.4-0.3-3.3-0.7l0.4-1.8c0.9,0.3,1.9,0.5,2.9,0.5c1.2,0,1.4-0.2,1.4-1.1
					c0-0.9,0-1-1.7-1.4c-2.4-0.5-2.8-1-2.8-3.2c0-2,0.7-2.8,3.5-2.8c0.9,0,1.9,0.1,3.1,0.3l-0.2,1.9c-1.2-0.2-1.9-0.3-2.8-0.3
					c-1,0-1.2,0.2-1.2,0.9c0,1,0,1,1.6,1.4c2.7,0.7,2.9,1.2,2.9,3.2C42.8,29.8,42.1,30.8,39.1,30.8z"/>
				<path id="XMLID_25_" class="st4" d="M47.8,22.5v8.1h-2.3v-8.1h-2.7v-2h7.7v2H47.8z"/>
				<path id="XMLID_27_" class="st4" d="M58.5,30.6h-2.4l-0.5-2h-3.4l-0.5,2h-2.4l3.1-10.1h3L58.5,30.6z M52.8,26.7h2.3l-1.2-4.2
					L52.8,26.7z"/>
				<path id="XMLID_30_" class="st4" d="M62.5,27.5h-1.3v3.1h-2.3V20.5h4.2c2.5,0,3.4,1,3.4,2.9v1.2c0,1.3-0.5,2.1-1.5,2.5l2.4,3.5
					h-2.7L62.5,27.5z M64.2,23.6c0-0.8-0.3-1.1-1.2-1.1h-1.8v3H63c1,0,1.2-0.3,1.2-1.1V23.6z"/>
				<path id="XMLID_33_" class="st4" d="M71.7,22.5v8.1h-2.3v-8.1h-2.7v-2h7.7v2H71.7z"/>
				<path id="XMLID_35_" class="st4" d="M82.4,20.5v7.2c0,1.5-1,3.1-3.8,3.1c-2.9,0-3.8-1.6-3.8-3.1v-7.2H77v6.9
					c0,0.8,0.4,1.3,1.5,1.3c1.1,0,1.5-0.5,1.5-1.3v-6.9H82.4z"/>
				<path id="XMLID_37_" class="st4" d="M87.5,27.5h-1.7v3.1h-2.3V20.5h4.1c2.5,0,3.4,1,3.4,2.9v1.3C91,26.6,90,27.5,87.5,27.5z
					 M88.7,23.6c0-0.7-0.3-1.1-1.2-1.1h-1.7v3h1.7c1,0,1.2-0.4,1.2-1.1V23.6z"/>
			</g>
			<g id="XMLID_40_">
				<linearGradient id="XMLID_91_" gradientUnits="userSpaceOnUse" x1="57.8277" y1="25.5611" x2="146.73" y2="25.5611">
					<stop  offset="0" style="stop-color:#042C4B"/>
					<stop  offset="1" style="stop-color:#24959B"/>
				</linearGradient>
				<path id="XMLID_41_" class="st5" d="M93.5,30.6V20.5h6.2v1.7h-4.3v2.7h4v1.7h-4v4H93.5z"/>
				<linearGradient id="XMLID_92_" gradientUnits="userSpaceOnUse" x1="57.8258" y1="25.5611" x2="146.7334" y2="25.5611">
					<stop  offset="0" style="stop-color:#042C4B"/>
					<stop  offset="1" style="stop-color:#24959B"/>
				</linearGradient>
				<path id="XMLID_43_" class="st6" d="M105.7,28.5h-3.7l-0.6,2.1h-2l3.2-10.1h2.7l3.2,10.1h-2L105.7,28.5z M102.4,26.9h2.8
					l-1.4-4.8L102.4,26.9z"/>
				<linearGradient id="XMLID_93_" gradientUnits="userSpaceOnUse" x1="57.8288" y1="25.5611" x2="146.7321" y2="25.5611">
					<stop  offset="0" style="stop-color:#042C4B"/>
					<stop  offset="1" style="stop-color:#24959B"/>
				</linearGradient>
				<path id="XMLID_46_" class="st7" d="M108.6,23.3c0-1.9,1.1-2.9,3.6-2.9c0.9,0,1.9,0.1,2.7,0.3l-0.2,1.7
					c-0.8-0.2-1.8-0.3-2.5-0.3c-1.3,0-1.7,0.5-1.7,1.5v3.9c0,1.1,0.4,1.5,1.7,1.5c0.7,0,1.7-0.1,2.5-0.3l0.2,1.7
					c-0.8,0.2-1.8,0.3-2.7,0.3c-2.5,0-3.6-1.1-3.6-2.9V23.3z"/>
				<linearGradient id="XMLID_94_" gradientUnits="userSpaceOnUse" x1="57.8196" y1="25.5611" x2="146.7368" y2="25.5611">
					<stop  offset="0" style="stop-color:#042C4B"/>
					<stop  offset="1" style="stop-color:#24959B"/>
				</linearGradient>
				<path id="XMLID_48_" class="st8" d="M118,22.2h-2.8v-1.7h7.6v1.7h-2.8v8.4H118V22.2z"/>
				<linearGradient id="XMLID_95_" gradientUnits="userSpaceOnUse" x1="57.8215" y1="25.5611" x2="146.735" y2="25.5611">
					<stop  offset="0" style="stop-color:#042C4B"/>
					<stop  offset="1" style="stop-color:#24959B"/>
				</linearGradient>
				<path id="XMLID_50_" class="st9" d="M130.7,27.7c0,1.7-1,3.1-3.8,3.1c-2.9,0-3.8-1.4-3.8-3.1v-4.2c0-1.7,1-3.1,3.8-3.1
					c2.9,0,3.8,1.4,3.8,3.1V27.7z M124.9,27.5c0,1,0.5,1.5,1.9,1.5c1.4,0,1.9-0.6,1.9-1.5v-4c0-1-0.5-1.5-1.9-1.5
					c-1.4,0-1.9,0.6-1.9,1.5V27.5z"/>
				<linearGradient id="XMLID_96_" gradientUnits="userSpaceOnUse" x1="57.8192" y1="25.5611" x2="146.7354" y2="25.5611">
					<stop  offset="0" style="stop-color:#042C4B"/>
					<stop  offset="1" style="stop-color:#24959B"/>
				</linearGradient>
				<path id="XMLID_53_" class="st10" d="M138,30.6l-2.3-3.3h-1.8v3.3h-1.9V20.5h4.1c2.4,0,3.2,1,3.2,2.7v1.3c0,1.2-0.5,2.1-1.5,2.4
					l2.5,3.6H138z M136,22.2h-2.2v3.4h2.2c1,0,1.4-0.4,1.4-1.2v-1C137.4,22.5,137,22.2,136,22.2z"/>
				<linearGradient id="XMLID_97_" gradientUnits="userSpaceOnUse" x1="57.8213" y1="25.5611" x2="146.7353" y2="25.5611">
					<stop  offset="0" style="stop-color:#042C4B"/>
					<stop  offset="1" style="stop-color:#24959B"/>
				</linearGradient>
				<path id="XMLID_56_" class="st11" d="M145.7,20.5h2l-3.3,7.2v2.9h-1.9v-2.9l-3.3-7.2h2l2.2,5.1L145.7,20.5z"/>
			</g>
		</g>
	</g>
</g>
</svg>
